<mxfile host="app.diagrams.net" agent="Mozilla/5.0 (Windows NT 10.0; Win64; x64) AppleWebKit/537.36 (KHTML, like Gecko) Chrome/138.0.0.0 Safari/537.36" version="27.2.0">
  <diagram name="Page-1" id="2YBvvXClWsGukQMizWep">
    <mxGraphModel dx="1665" dy="757" grid="1" gridSize="10" guides="1" tooltips="1" connect="1" arrows="1" fold="1" page="1" pageScale="1" pageWidth="850" pageHeight="1100" math="0" shadow="0">
      <root>
        <mxCell id="0" />
        <mxCell id="1" parent="0" />
        <mxCell id="aM9ryv3xv72pqoxQDRHE-5" value="Frontend Django Python" style="shape=umlLifeline;perimeter=lifelinePerimeter;whiteSpace=wrap;html=1;container=0;dropTarget=0;collapsible=0;recursiveResize=0;outlineConnect=0;portConstraint=eastwest;newEdgeStyle={&quot;edgeStyle&quot;:&quot;elbowEdgeStyle&quot;,&quot;elbow&quot;:&quot;vertical&quot;,&quot;curved&quot;:0,&quot;rounded&quot;:0};" parent="1" vertex="1">
          <mxGeometry x="260" y="30" width="150" height="550" as="geometry" />
        </mxCell>
        <mxCell id="aM9ryv3xv72pqoxQDRHE-6" value="" style="html=1;points=[];perimeter=orthogonalPerimeter;outlineConnect=0;targetShapes=umlLifeline;portConstraint=eastwest;newEdgeStyle={&quot;edgeStyle&quot;:&quot;elbowEdgeStyle&quot;,&quot;elbow&quot;:&quot;vertical&quot;,&quot;curved&quot;:0,&quot;rounded&quot;:0};" parent="aM9ryv3xv72pqoxQDRHE-5" vertex="1">
          <mxGeometry x="70" y="90" width="10" height="300" as="geometry" />
        </mxCell>
        <mxCell id="aM9ryv3xv72pqoxQDRHE-7" value="Consulte le panier et fait des modifs" style="html=1;verticalAlign=bottom;endArrow=block;edgeStyle=elbowEdgeStyle;elbow=vertical;curved=0;rounded=0;" parent="1" source="00wRDX6nhMXzsEndpYq1-1" target="aM9ryv3xv72pqoxQDRHE-6" edge="1">
          <mxGeometry x="0.0019" relative="1" as="geometry">
            <mxPoint x="80" y="130" as="sourcePoint" />
            <Array as="points">
              <mxPoint x="165" y="130" />
            </Array>
            <mxPoint x="300" y="130" as="targetPoint" />
            <mxPoint as="offset" />
          </mxGeometry>
        </mxCell>
        <mxCell id="00wRDX6nhMXzsEndpYq1-1" value="" style="shape=umlLifeline;perimeter=lifelinePerimeter;whiteSpace=wrap;html=1;container=1;dropTarget=0;collapsible=0;recursiveResize=0;outlineConnect=0;portConstraint=eastwest;newEdgeStyle={&quot;curved&quot;:0,&quot;rounded&quot;:0};participant=umlActor;" parent="1" vertex="1">
          <mxGeometry x="60" y="30" width="20" height="540" as="geometry" />
        </mxCell>
        <mxCell id="00wRDX6nhMXzsEndpYq1-3" value="KrakenD - Service Stocks" style="shape=umlLifeline;perimeter=lifelinePerimeter;whiteSpace=wrap;html=1;container=0;dropTarget=0;collapsible=0;recursiveResize=0;outlineConnect=0;portConstraint=eastwest;newEdgeStyle={&quot;edgeStyle&quot;:&quot;elbowEdgeStyle&quot;,&quot;elbow&quot;:&quot;vertical&quot;,&quot;curved&quot;:0,&quot;rounded&quot;:0};" parent="1" vertex="1">
          <mxGeometry x="630" y="30" width="120" height="530" as="geometry" />
        </mxCell>
        <mxCell id="00wRDX6nhMXzsEndpYq1-4" value="" style="html=1;points=[];perimeter=orthogonalPerimeter;outlineConnect=0;targetShapes=umlLifeline;portConstraint=eastwest;newEdgeStyle={&quot;edgeStyle&quot;:&quot;elbowEdgeStyle&quot;,&quot;elbow&quot;:&quot;vertical&quot;,&quot;curved&quot;:0,&quot;rounded&quot;:0};" parent="00wRDX6nhMXzsEndpYq1-3" vertex="1">
          <mxGeometry x="55" y="170" width="10" height="200" as="geometry" />
        </mxCell>
        <mxCell id="00wRDX6nhMXzsEndpYq1-5" value="Cart" style="shape=umlLifeline;perimeter=lifelinePerimeter;whiteSpace=wrap;html=1;container=0;dropTarget=0;collapsible=0;recursiveResize=0;outlineConnect=0;portConstraint=eastwest;newEdgeStyle={&quot;edgeStyle&quot;:&quot;elbowEdgeStyle&quot;,&quot;elbow&quot;:&quot;vertical&quot;,&quot;curved&quot;:0,&quot;rounded&quot;:0};" parent="1" vertex="1">
          <mxGeometry x="840" y="30" width="120" height="530" as="geometry" />
        </mxCell>
        <mxCell id="00wRDX6nhMXzsEndpYq1-6" value="" style="html=1;points=[];perimeter=orthogonalPerimeter;outlineConnect=0;targetShapes=umlLifeline;portConstraint=eastwest;newEdgeStyle={&quot;edgeStyle&quot;:&quot;elbowEdgeStyle&quot;,&quot;elbow&quot;:&quot;vertical&quot;,&quot;curved&quot;:0,&quot;rounded&quot;:0};" parent="00wRDX6nhMXzsEndpYq1-5" vertex="1">
          <mxGeometry x="55" y="180" width="10" height="140" as="geometry" />
        </mxCell>
        <mxCell id="00wRDX6nhMXzsEndpYq1-7" value="Base de données MongoDB" style="shape=umlLifeline;perimeter=lifelinePerimeter;whiteSpace=wrap;html=1;container=0;dropTarget=0;collapsible=0;recursiveResize=0;outlineConnect=0;portConstraint=eastwest;newEdgeStyle={&quot;edgeStyle&quot;:&quot;elbowEdgeStyle&quot;,&quot;elbow&quot;:&quot;vertical&quot;,&quot;curved&quot;:0,&quot;rounded&quot;:0};" parent="1" vertex="1">
          <mxGeometry x="1090" y="30" width="120" height="530" as="geometry" />
        </mxCell>
        <mxCell id="00wRDX6nhMXzsEndpYq1-8" value="" style="html=1;points=[];perimeter=orthogonalPerimeter;outlineConnect=0;targetShapes=umlLifeline;portConstraint=eastwest;newEdgeStyle={&quot;edgeStyle&quot;:&quot;elbowEdgeStyle&quot;,&quot;elbow&quot;:&quot;vertical&quot;,&quot;curved&quot;:0,&quot;rounded&quot;:0};" parent="00wRDX6nhMXzsEndpYq1-7" vertex="1">
          <mxGeometry x="55" y="200" width="10" height="130" as="geometry" />
        </mxCell>
        <mxCell id="00wRDX6nhMXzsEndpYq1-10" value="Envoie une demande GET sur&amp;nbsp;&lt;div&gt;http://localhost:80/api/v1/stocks/{user}/cart&lt;/div&gt;" style="html=1;verticalAlign=bottom;endArrow=block;edgeStyle=elbowEdgeStyle;elbow=vertical;curved=0;rounded=0;" parent="1" source="aM9ryv3xv72pqoxQDRHE-6" edge="1">
          <mxGeometry x="0.0029" relative="1" as="geometry">
            <mxPoint x="325" y="206" as="sourcePoint" />
            <Array as="points">
              <mxPoint x="445.51965517241376" y="206" />
            </Array>
            <mxPoint x="685" y="206" as="targetPoint" />
            <mxPoint as="offset" />
          </mxGeometry>
        </mxCell>
        <mxCell id="00wRDX6nhMXzsEndpYq1-11" value="Prepare une query pour le schéma" style="html=1;verticalAlign=bottom;endArrow=block;edgeStyle=elbowEdgeStyle;elbow=vertical;curved=0;rounded=0;" parent="1" source="00wRDX6nhMXzsEndpYq1-4" target="00wRDX6nhMXzsEndpYq1-6" edge="1">
          <mxGeometry relative="1" as="geometry">
            <mxPoint x="710" y="220" as="sourcePoint" />
            <Array as="points">
              <mxPoint x="795.5196551724138" y="220" />
            </Array>
            <mxPoint x="955.1896551724137" y="220" as="targetPoint" />
          </mxGeometry>
        </mxCell>
        <mxCell id="00wRDX6nhMXzsEndpYq1-12" value="Fait une recherche find dans le magasin" style="html=1;verticalAlign=bottom;endArrow=block;edgeStyle=elbowEdgeStyle;elbow=vertical;curved=0;rounded=0;" parent="1" source="00wRDX6nhMXzsEndpYq1-6" target="00wRDX6nhMXzsEndpYq1-8" edge="1">
          <mxGeometry relative="1" as="geometry">
            <mxPoint x="920" y="240" as="sourcePoint" />
            <Array as="points">
              <mxPoint x="1020.5196551724139" y="240" />
            </Array>
            <mxPoint x="1190" y="240" as="targetPoint" />
          </mxGeometry>
        </mxCell>
        <mxCell id="00wRDX6nhMXzsEndpYq1-13" value="Retourne le résultat en JSON" style="html=1;verticalAlign=bottom;endArrow=open;dashed=1;endSize=8;edgeStyle=elbowEdgeStyle;elbow=vertical;curved=0;rounded=0;" parent="1" source="00wRDX6nhMXzsEndpYq1-8" target="00wRDX6nhMXzsEndpYq1-4" edge="1">
          <mxGeometry relative="1" as="geometry">
            <mxPoint x="930" y="270" as="targetPoint" />
            <Array as="points">
              <mxPoint x="995.3333333333333" y="270" />
            </Array>
            <mxPoint x="1125.3333333333333" y="270" as="sourcePoint" />
          </mxGeometry>
        </mxCell>
        <mxCell id="00wRDX6nhMXzsEndpYq1-14" value="Retourne le résultat en JSON" style="html=1;verticalAlign=bottom;endArrow=open;dashed=1;endSize=8;edgeStyle=elbowEdgeStyle;elbow=vertical;curved=0;rounded=0;" parent="1" source="00wRDX6nhMXzsEndpYq1-4" target="aM9ryv3xv72pqoxQDRHE-6" edge="1">
          <mxGeometry relative="1" as="geometry">
            <mxPoint x="350" y="280" as="targetPoint" />
            <Array as="points">
              <mxPoint x="530.3333333333333" y="280" />
            </Array>
            <mxPoint x="680" y="280" as="sourcePoint" />
          </mxGeometry>
        </mxCell>
        <mxCell id="gWvqY_dNA4tdeKr9V7Yw-1" value="Envoie une demande POST/PATCH sur&amp;nbsp;&lt;div&gt;http://localhost:80/api/v1/stocks/{user}/cart&lt;/div&gt;" style="html=1;verticalAlign=bottom;endArrow=block;edgeStyle=elbowEdgeStyle;elbow=vertical;curved=0;rounded=0;" edge="1" parent="1">
          <mxGeometry x="0.0029" relative="1" as="geometry">
            <mxPoint x="340" y="320" as="sourcePoint" />
            <Array as="points">
              <mxPoint x="445.51965517241376" y="320" />
            </Array>
            <mxPoint x="685" y="320" as="targetPoint" />
            <mxPoint as="offset" />
          </mxGeometry>
        </mxCell>
        <mxCell id="gWvqY_dNA4tdeKr9V7Yw-2" value="Prepare une query pour le schéma" style="html=1;verticalAlign=bottom;endArrow=block;edgeStyle=elbowEdgeStyle;elbow=vertical;curved=0;rounded=0;" edge="1" parent="1">
          <mxGeometry relative="1" as="geometry">
            <mxPoint x="695" y="330" as="sourcePoint" />
            <Array as="points">
              <mxPoint x="795.5196551724138" y="330" />
            </Array>
            <mxPoint x="895" y="330" as="targetPoint" />
          </mxGeometry>
        </mxCell>
        <mxCell id="gWvqY_dNA4tdeKr9V7Yw-3" value="Fait une recherche find dans le magasin" style="html=1;verticalAlign=bottom;endArrow=block;edgeStyle=elbowEdgeStyle;elbow=vertical;curved=0;rounded=0;" edge="1" parent="1">
          <mxGeometry relative="1" as="geometry">
            <mxPoint x="907" y="338" as="sourcePoint" />
            <Array as="points">
              <mxPoint x="1022.5196551724139" y="338" />
            </Array>
            <mxPoint x="1147" y="338" as="targetPoint" />
          </mxGeometry>
        </mxCell>
        <mxCell id="gWvqY_dNA4tdeKr9V7Yw-4" value="Retourne le résultat en JSON" style="html=1;verticalAlign=bottom;endArrow=open;dashed=1;endSize=8;edgeStyle=elbowEdgeStyle;elbow=vertical;curved=0;rounded=0;" edge="1" parent="1">
          <mxGeometry relative="1" as="geometry">
            <mxPoint x="694" y="356" as="targetPoint" />
            <Array as="points">
              <mxPoint x="994.3333333333333" y="356" />
            </Array>
            <mxPoint x="1144" y="356" as="sourcePoint" />
          </mxGeometry>
        </mxCell>
        <mxCell id="gWvqY_dNA4tdeKr9V7Yw-5" value="Retourne le résultat en JSON" style="html=1;verticalAlign=bottom;endArrow=open;dashed=1;endSize=8;edgeStyle=elbowEdgeStyle;elbow=vertical;curved=0;rounded=0;" edge="1" parent="1">
          <mxGeometry relative="1" as="geometry">
            <mxPoint x="340" y="380" as="targetPoint" />
            <Array as="points">
              <mxPoint x="530.3333333333333" y="380" />
            </Array>
            <mxPoint x="685" y="380" as="sourcePoint" />
          </mxGeometry>
        </mxCell>
        <mxCell id="gWvqY_dNA4tdeKr9V7Yw-6" value="Affiche le contenu modifié du panier" style="html=1;verticalAlign=bottom;endArrow=open;dashed=1;endSize=8;edgeStyle=elbowEdgeStyle;elbow=vertical;curved=0;rounded=0;" edge="1" parent="1" source="aM9ryv3xv72pqoxQDRHE-6" target="00wRDX6nhMXzsEndpYq1-1">
          <mxGeometry relative="1" as="geometry">
            <mxPoint x="80" y="400" as="targetPoint" />
            <Array as="points">
              <mxPoint x="270.33333333333326" y="400" />
            </Array>
            <mxPoint x="310" y="400" as="sourcePoint" />
          </mxGeometry>
        </mxCell>
      </root>
    </mxGraphModel>
  </diagram>
</mxfile>
